<?xml version="1.0" encoding="UTF-8"?>
<svg id="_Слой_1" data-name="Слой 1" xmlns="http://www.w3.org/2000/svg" viewBox="0 0 413.8 329.48">
  <defs>
    <style>
      .cls-1 {
        stroke-dasharray: 0 0 0 19.41 .97 0;
      }

      .cls-1, .cls-2, .cls-3 {
        fill: none;
        stroke: #fff;
        stroke-miterlimit: 10;
        stroke-width: 3px;
      }

      .cls-4 {
        fill: #fff;
      }

      .cls-5 {
        fill: #4b2976;
        font-family: Roboto-Regular, Roboto;
        font-size: 24.65px;
        font-variation-settings: 'wght' 400, 'wdth' 100;
      }

      .cls-6 {
        letter-spacing: -.05em;
      }

      .cls-3 {
        stroke-dasharray: 19.42 .96 0 0 0 19.41;
      }

      .cls-7 {
        fill: #9e91e7;
      }
    </style>
  </defs>
  <g>
    <path class="cls-7" d="M85.92,60.85c-3.36,0-6.08,2.72-6.08,6.08s2.72,6.08,6.08,6.08,6.08-2.72,6.08-6.08-2.72-6.08-6.08-6.08ZM85.92,70.58c-2.01,0-3.65-1.63-3.65-3.65s1.63-3.65,3.65-3.65,3.65,1.63,3.65,3.65-1.63,3.65-3.65,3.65ZM85.92,53.56c-7.38,0-13.36,5.99-13.37,13.37,0,4.77,2.2,9.82,6.38,14.62,1.88,2.17,3.99,4.12,6.3,5.82.42.29.98.29,1.39,0,2.3-1.7,4.41-3.65,6.28-5.82,4.17-4.8,6.38-9.85,6.38-14.62,0-7.38-5.99-13.36-13.37-13.37ZM85.92,84.85c-2.51-1.97-10.94-9.23-10.94-17.92,0-6.04,4.9-10.94,10.94-10.94s10.94,4.9,10.94,10.94c0,8.69-8.43,15.95-10.94,17.92Z"/>
    <g>
      <rect class="cls-4" x="7.18" y="0" width="157.47" height="43.57" rx="21.79" ry="21.79"/>
      <text class="cls-5" transform="translate(37.17 30.09)"><tspan class="cls-6" x="0" y="0">У</tspan><tspan x="14.28" y="0">краина</tspan></text>
    </g>
  </g>
  <g>
    <path class="cls-7" d="M324.75,185.61c-3.36,0-6.08,2.72-6.08,6.08s2.72,6.08,6.08,6.08,6.08-2.72,6.08-6.08-2.72-6.08-6.08-6.08ZM324.75,195.33c-2.01,0-3.65-1.63-3.65-3.65s1.63-3.65,3.65-3.65,3.65,1.63,3.65,3.65-1.63,3.65-3.65,3.65ZM324.75,178.32c-7.38,0-13.36,5.99-13.37,13.37,0,4.77,2.2,9.82,6.38,14.62,1.88,2.17,3.99,4.12,6.3,5.82.42.29.98.29,1.39,0,2.3-1.7,4.41-3.65,6.28-5.82,4.17-4.8,6.38-9.85,6.38-14.62,0-7.38-5.99-13.36-13.37-13.37ZM324.75,209.61c-2.51-1.97-10.94-9.23-10.94-17.92,0-6.04,4.9-10.94,10.94-10.94s10.94,4.9,10.94,10.94c0,8.69-8.43,15.95-10.94,17.92Z"/>
    <g>
      <rect class="cls-4" x="251.82" y="125.73" width="157.47" height="43.57" rx="21.79" ry="21.79"/>
      <text class="cls-5" transform="translate(274.09 154.72)"><tspan x="0" y="0">Словакия</tspan></text>
    </g>
  </g>
  <g>
    <path class="cls-7" d="M76.46,282.62c-3.36,0-6.08,2.72-6.08,6.08s2.72,6.08,6.08,6.08,6.08-2.72,6.08-6.08-2.72-6.08-6.08-6.08ZM76.46,292.34c-2.01,0-3.65-1.63-3.65-3.65s1.63-3.65,3.65-3.65,3.65,1.63,3.65,3.65-1.63,3.65-3.65,3.65ZM76.46,275.33c-7.38,0-13.36,5.99-13.37,13.37,0,4.77,2.2,9.82,6.38,14.62,1.88,2.17,3.99,4.12,6.3,5.82.42.29.98.29,1.39,0,2.3-1.7,4.41-3.65,6.28-5.82,4.17-4.8,6.38-9.85,6.38-14.62,0-7.38-5.99-13.36-13.37-13.37ZM76.46,306.62c-2.51-1.97-10.94-9.23-10.94-17.92,0-6.04,4.9-10.94,10.94-10.94s10.94,4.9,10.94,10.94c0,8.69-8.43,15.95-10.94,17.92Z"/>
    <g>
      <rect class="cls-4" x="3.53" y="222.75" width="157.47" height="43.57" rx="21.79" ry="21.79"/>
      <text class="cls-5" transform="translate(41.49 251.74)"><tspan x="0" y="0">Чехия</tspan></text>
    </g>
  </g>
  <g>
    <path class="cls-2" d="M85.24,90.55c.09,4.34-.47,7.49-1.45,9.83"/>
    <path class="cls-1" d="M83.39,101.26c-3.8,7.43-12.5,5.51-17.29,9.76"/>
    <path class="cls-3" d="M66.1,111.02c-.7.62-1.32,1.37-1.82,2.31-5.09,9.39-3.32,22,4.15,29.63,4.55,4.65,10.72,7.36,16.91,9.39,18.22,5.99,38.06,6.99,56.79,2.86,13.37-2.95,26.66-8.48,40.25-6.79,18.11,2.26,32.15,16.78,42.52,31.81,10.36,15.02,19.04,31.81,33.44,43.02,10.36,8.07,23.33,12.73,36.45,13.11,4.73.14,19.38-7.57,23.89-6.16,4.83,1.51,9.12,4.28,12.15,8.33,7.25,9.68-1.3,32.32-8.99,41.65-7.34,8.9-20.11,10.6-31.61,11.39-25.5,1.75-51.09,2.18-76.63,1.28-12.63-.44-25.54-1.18-37.65,2.43-13.77,4.1-25.27,13.44-37.93,20.25-9.66,5.19-21.14,8.86-31.68,7.3"/>
    <path class="cls-2" d="M106.34,322.83c-3.28-.48-6.46-1.47-9.47-3.07"/>
  </g>
</svg>