<?xml version="1.0" encoding="UTF-8"?>
<svg id="_Слой_1" data-name="Слой 1" xmlns="http://www.w3.org/2000/svg" viewBox="0 0 960 210.88">
  <defs>
    <style>
      .cls-1, .cls-2, .cls-3 {
        fill: #fff;
      }

      .cls-4 {
        letter-spacing: -.07em;
      }

      .cls-5 {
        stroke: #fff;
        stroke-linecap: round;
        stroke-linejoin: round;
      }

      .cls-5, .cls-2 {
        stroke-width: 2px;
      }

      .cls-5, .cls-6 {
        fill: none;
      }

      .cls-2 {
        stroke: #000;
      }

      .cls-2, .cls-6 {
        stroke-miterlimit: 10;
      }

      .cls-6 {
        stroke: #010101;
        stroke-width: 3px;
      }

      .cls-3 {
        font-family: SourceSerifRoman-Bold, 'Source Serif Variable';
        font-size: 48.43px;
        font-variation-settings: 'wght' 700;
        font-weight: 700;
      }

      .cls-7 {
        letter-spacing: -.06em;
      }

      .cls-8 {
        letter-spacing: -.07em;
      }

      .cls-9 {
        letter-spacing: -.05em;
      }

      .cls-10 {
        letter-spacing: -.04em;
      }
    </style>
  </defs>
  <g>
    <path class="cls-1" d="M252.43,208.28C79.36,160.25-.44,128.4.58,110.59-15.45,63.56,307.21,46.38,208.96,21.86l50.64-2.24c112.95,27.7-148.05,61.27-124.58,86.94,76.42,31.54,233.93,54.27,384.49,90.52l8.07,11.2H252.43Z"/>
    <path class="cls-6" d="M392.92,210.88c-.45.34-317.21-71.25-316.5-100.21.93-28.69,262.8-73.86,162.77-92.05"/>
  </g>
  <g>
    <polygon class="cls-2" points="381.88 67.16 381.88 72.18 374.96 73.27 355.67 128.79 346.52 128.79 326.44 72.74 321.01 72.18 321.01 67.16 351.2 67.16 351.2 71.97 343.23 72.94 356.05 111.46 369 73.17 361.62 71.97 361.62 67.16 381.88 67.16"/>
    <path class="cls-2" d="M436.4,97.88c0,21.56-14.23,32.47-29.68,32.47s-29.7-10.67-29.7-32.47,14.35-32.47,29.7-32.47,29.68,10.67,29.68,32.47ZM406.72,124.93c9.41,0,13.11-11.53,13.11-27.05s-3.7-27.12-13.11-27.12-13.13,11.67-13.13,27.12,3.72,27.05,13.13,27.05Z"/>
    <path class="cls-2" d="M440.01,100.66h24.21v8.42h-24.21v-8.42Z"/>
    <path class="cls-2" d="M514.07,84.55h-7.74l-1.71-12.11h-10.32c-.15,7.78-.15,15.71-.15,23.71v3.39c0,7.75,0,15.52.14,23.24l8.06.8v5.03h-32.04v-5.03l7.99-.81c.14-7.6.14-15.35.14-23.16v-3.46c0-7.88,0-15.82-.15-23.71h-10.25l-1.71,12.11h-7.8l.34-17.39h54.91l.28,17.39Z"/>
    <path class="cls-2" d="M573.17,128.61v-5.03l.88-.13-5.84-.64-1.79-10.39c-1.43-8.74-4.44-13.55-14.94-14.94,12.46-2.01,16.63-8.5,16.63-14.82,0-9.7-8.15-15.51-22.87-15.51h-30.43v5.02l7.06.73c.14,7.74.14,15.52.14,23.25v3.46c0,7.84,0,15.62-.14,23.24l-7.06.73v5.03h30.11v-5.03l-7.32-.75c-.14-7.4-.15-14.87-.15-22.47h3.4c5.6,0,7.92,2.86,8.85,9.15l1.74,10.86c.92,7.27,5.6,9.58,13.56,9.58,4.29,0,5.79-.31,10.25-1.34h-2.07ZM541.02,95.13h-3.57c0-7.78,0-15.23.15-22.59h3.84c7.63,0,11.71,3.63,11.71,11.15,0,6.03-2.84,11.44-12.13,11.44Z"/>
    <path class="cls-2" d="M633.67,123.72l-5.08-.59-19.17-56.11h-9.66l-19.06,55.47-6.64.97h0l-.88.13v5.03h20.16v-5.03l-7.18-1.13,3.8-11.69h18.85l3.84,12.08-7.22.96v4.82h28.84v-4.82l-.58-.07ZM591.72,105.31l7.76-23.86,7.58,23.86h-15.35Z"/>
    <polygon class="cls-2" points="696.43 67.16 696.43 72.18 688.48 73.36 688.48 128.79 680.56 128.79 647.65 83.1 647.65 122.34 658.35 123.58 658.35 128.61 634.26 128.61 634.26 123.79 633.67 123.72 633.67 123.58 641.63 122.46 641.63 74.72 640.24 72.79 633.81 72.25 633.81 67.16 654.93 67.16 682.45 104.94 682.45 73.38 671.75 72.18 671.75 67.16 696.43 67.16"/>
    <path class="cls-2" d="M741.84,111.5c0,11.04-8.45,18.85-24.43,18.85-7.02,0-14.93-1.57-20.31-4.89l.56-13.91h8.72l1.85,11.56c2.88,1.11,5.65,1.68,9.16,1.68,6.66,0,10.26-3.84,10.26-8.92s-2.44-7.17-8.08-9.68l-3.96-1.81c-11.02-5.02-17.37-10.58-17.37-20.93,0-11.23,9.07-18.05,23.24-18.05,6.67,0,13.12,1.76,17.68,4.76l-.77,13.1h-8.58l-1.78-11.01c-2.01-.86-4-1.29-6.31-1.29-5.34,0-9.64,3.37-9.64,8.5s2.96,7.53,8.5,10.01l4.39,2.01c11.94,5.37,16.85,10.53,16.85,20Z"/>
  </g>
  <g>
    <g>
      <polygon class="cls-1" points="860.89 174.62 862.93 180.9 869.54 180.9 864.19 184.79 866.24 191.07 860.89 187.19 855.54 191.07 857.59 184.79 852.24 180.9 858.85 180.9 860.89 174.62"/>
      <polygon class="cls-1" points="898.79 166.39 900.83 172.68 907.44 172.68 902.09 176.56 904.14 182.85 898.79 178.96 893.44 182.85 895.49 176.56 890.14 172.68 896.75 172.68 898.79 166.39"/>
      <polygon class="cls-1" points="928.79 141.57 930.83 147.86 937.44 147.86 932.1 151.74 934.14 158.03 928.79 154.14 923.45 158.03 925.49 151.74 920.14 147.86 926.75 147.86 928.79 141.57"/>
      <polygon class="cls-1" points="946.09 107.05 948.14 113.34 954.75 113.34 949.4 117.22 951.44 123.51 946.09 119.62 940.75 123.51 942.79 117.22 937.44 113.34 944.05 113.34 946.09 107.05"/>
      <polygon class="cls-1" points="946.09 67.57 948.14 73.85 954.75 73.85 949.4 77.74 951.44 84.02 946.09 80.14 940.75 84.02 942.79 77.74 937.44 73.85 944.05 73.85 946.09 67.57"/>
      <polygon class="cls-1" points="928.79 32.6 930.83 38.88 937.44 38.88 932.1 42.77 934.14 49.05 928.79 45.17 923.45 49.05 925.49 42.77 920.14 38.88 926.75 38.88 928.79 32.6"/>
      <polygon class="cls-1" points="898.56 8.23 900.6 14.51 907.21 14.51 901.86 18.4 903.9 24.68 898.56 20.8 893.21 24.68 895.25 18.4 889.91 14.51 896.52 14.51 898.56 8.23"/>
      <polygon class="cls-1" points="860.88 0 862.92 6.29 869.53 6.29 864.18 10.17 866.23 16.46 860.88 12.57 855.53 16.46 857.57 10.17 852.23 6.29 858.84 6.29 860.88 0"/>
      <polygon class="cls-1" points="823.2 8.23 825.24 14.51 831.85 14.51 826.5 18.4 828.55 24.68 823.2 20.8 817.85 24.68 819.89 18.4 814.55 14.51 821.16 14.51 823.2 8.23"/>
      <polygon class="cls-1" points="792.06 32.6 794.1 38.88 800.71 38.88 795.37 42.77 797.41 49.05 792.06 45.17 786.72 49.05 788.76 42.77 783.41 38.88 790.02 38.88 792.06 32.6"/>
      <polygon class="cls-1" points="776.04 68.44 778.09 74.72 784.69 74.72 779.35 78.61 781.39 84.89 776.04 81.01 770.7 84.89 772.74 78.61 767.39 74.72 774 74.72 776.04 68.44"/>
      <polygon class="cls-1" points="776.04 107.05 778.09 113.34 784.69 113.34 779.35 117.22 781.39 123.51 776.04 119.62 770.7 123.51 772.74 117.22 767.39 113.34 774 113.34 776.04 107.05"/>
      <g>
        <polygon class="cls-1" points="792.06 154.76 785.76 159.34 788.17 151.93 781.87 147.36 789.66 147.36 792.06 139.95 794.47 147.36 802.25 147.36 795.96 151.93 798.36 159.34 792.06 154.76"/>
        <path d="M792.06,141.57l2.04,6.29h6.61l-5.35,3.88,2.04,6.29-5.35-3.88-5.35,3.88,2.04-6.29-5.35-3.88h6.61l2.04-6.29M792.06,138.34l-.95,2.93-1.82,5.59h-8.96l2.49,1.81,4.76,3.46-1.82,5.59-.95,2.93,2.49-1.81,4.76-3.46,4.76,3.46,2.49,1.81-.95-2.93-1.82-5.59,4.76-3.46,2.49-1.81h-8.96l-1.82-5.59-.95-2.93h0Z"/>
      </g>
      <polygon class="cls-1" points="823.2 166.39 825.24 172.68 831.85 172.68 826.5 176.56 828.55 182.85 823.2 178.96 817.85 182.85 819.89 176.56 814.55 172.68 821.16 172.68 823.2 166.39"/>
    </g>
    <g>
      <text class="cls-3" transform="translate(830.58 77.56)"><tspan class="cls-4" x="0" y="0">E</tspan><tspan class="cls-9" x="25.57" y="0">U</tspan></text>
      <text class="cls-3" transform="translate(817.72 139.11)"><tspan class="cls-8" x="0" y="0">B</tspan><tspan class="cls-7" x="28.24" y="0">U</tspan><tspan class="cls-10" x="60.49" y="0">S</tspan></text>
      <line class="cls-5" x1="923.03" y1="95.74" x2="799.11" y2="95.74"/>
    </g>
  </g>
</svg>