<?xml version="1.0" encoding="UTF-8"?>
<svg id="_Слой_1" data-name="Слой 1" xmlns="http://www.w3.org/2000/svg" viewBox="0 0 187.35 189.89">
  <defs>
    <style>
      .cls-1, .cls-2 {
        fill: #fff;
      }

      .cls-2 {
        stroke: #000;
        stroke-miterlimit: 10;
        stroke-width: .25px;
      }
    </style>
  </defs>
  <g>
    <g>
      <path class="cls-2" d="M54.31,111.36h-3.54l-.78-5.53h-4.72c-.07,3.55-.07,7.18-.07,10.84v1.55c0,3.54,0,7.09.07,10.62l3.68.37v2.3h-14.65v-2.3l3.65-.37c.07-3.47.07-7.02.07-10.59v-1.58c0-3.6,0-7.23-.07-10.84h-4.69l-.78,5.53h-3.57l.16-7.95h25.1l.13,7.95Z"/>
      <path class="cls-2" d="M81.33,131.5v-2.3l.4-.06-2.67-.29-.82-4.75c-.65-4-2.03-6.19-6.83-6.83,5.7-.92,7.6-3.88,7.6-6.77,0-4.43-3.73-7.09-10.45-7.09h-13.91v2.29l3.23.33c.07,3.54.07,7.09.07,10.63v1.58c0,3.58,0,7.14-.07,10.62l-3.23.33v2.3h13.76v-2.3l-3.35-.34c-.07-3.38-.07-6.8-.07-10.27h1.55c2.56,0,3.62,1.31,4.04,4.18l.8,4.96c.42,3.32,2.56,4.38,6.2,4.38,1.96,0,2.65-.14,4.68-.61h-.95ZM66.63,116.2h-1.63c0-3.56,0-6.96.07-10.33h1.76c3.49,0,5.35,1.66,5.35,5.1,0,2.75-1.3,5.23-5.55,5.23Z"/>
      <path class="cls-2" d="M108.98,129.26l-2.32-.27-8.76-25.64h-4.42l-8.71,25.35-3.04.44h0l-.4.06v2.3h9.22v-2.3l-3.28-.52,1.74-5.34h8.62l1.75,5.52-3.3.44v2.2h13.18v-2.2l-.27-.03ZM89.81,120.85l3.55-10.91,3.47,10.91h-7.01Z"/>
      <polygon class="cls-2" points="137.67 103.41 137.67 105.71 134.03 106.25 134.03 131.58 130.41 131.58 115.37 110.7 115.37 128.64 120.26 129.2 120.26 131.5 109.25 131.5 109.25 129.3 108.98 129.26 108.98 129.2 112.62 128.69 112.62 106.87 111.99 105.99 109.05 105.74 109.05 103.41 118.7 103.41 131.28 120.68 131.28 106.25 126.39 105.71 126.39 103.41 137.67 103.41"/>
      <path class="cls-2" d="M158.42,123.68c0,5.04-3.86,8.62-11.17,8.62-3.21,0-6.82-.72-9.28-2.24l.26-6.36h3.99l.85,5.29c1.32.51,2.58.77,4.19.77,3.04,0,4.69-1.76,4.69-4.08s-1.11-3.28-3.69-4.42l-1.81-.83c-5.04-2.29-7.94-4.84-7.94-9.57,0-5.13,4.15-8.25,10.62-8.25,3.05,0,5.99.8,8.08,2.17l-.35,5.99h-3.92l-.81-5.03c-.92-.39-1.83-.59-2.88-.59-2.44,0-4.41,1.54-4.41,3.89s1.35,3.44,3.89,4.58l2.01.92c5.46,2.45,7.7,4.81,7.7,9.14Z"/>
    </g>
    <g>
      <polygon class="cls-2" points="95.45 57.21 95.45 59.51 92.27 60.01 83.42 85.48 79.23 85.48 70.01 59.77 67.52 59.51 67.52 57.21 81.37 57.21 81.37 59.42 77.72 59.86 83.6 77.53 89.54 59.97 86.15 59.42 86.15 57.21 95.45 57.21"/>
      <path class="cls-2" d="M120.46,71.3c0,9.89-6.53,14.89-13.61,14.89s-13.63-4.89-13.63-14.89,6.58-14.89,13.63-14.89,13.61,4.89,13.61,14.89ZM106.85,83.71c4.32,0,6.01-5.29,6.01-12.41s-1.7-12.44-6.01-12.44-6.02,5.35-6.02,12.44,1.71,12.41,6.02,12.41Z"/>
    </g>
  </g>
  <g>
    <polygon class="cls-1" points="93.5 173.43 95.54 179.72 102.15 179.72 96.8 183.6 98.84 189.89 93.5 186.01 88.15 189.89 90.19 183.6 84.85 179.72 91.46 179.72 93.5 173.43"/>
    <polygon class="cls-1" points="131.4 165.21 133.44 171.49 140.05 171.49 134.7 175.38 136.74 181.66 131.4 177.78 126.05 181.66 128.09 175.38 122.75 171.49 129.36 171.49 131.4 165.21"/>
    <polygon class="cls-1" points="161.4 140.39 163.44 146.67 170.05 146.67 164.7 150.56 166.75 156.84 161.4 152.96 156.05 156.84 158.1 150.56 152.75 146.67 159.36 146.67 161.4 140.39"/>
    <polygon class="cls-1" points="178.7 105.87 180.74 112.15 187.35 112.15 182.01 116.04 184.05 122.32 178.7 118.44 173.36 122.32 175.4 116.04 170.05 112.15 176.66 112.15 178.7 105.87"/>
    <polygon class="cls-1" points="178.7 66.38 180.74 72.67 187.35 72.67 182.01 76.55 184.05 82.84 178.7 78.95 173.36 82.84 175.4 76.55 170.05 72.67 176.66 72.67 178.7 66.38"/>
    <polygon class="cls-1" points="161.4 31.41 163.44 37.7 170.05 37.7 164.7 41.58 166.75 47.87 161.4 43.98 156.05 47.87 158.1 41.58 152.75 37.7 159.36 37.7 161.4 31.41"/>
    <polygon class="cls-1" points="131.17 7.04 133.21 13.33 139.82 13.33 134.47 17.21 136.51 23.5 131.17 19.61 125.82 23.5 127.86 17.21 122.51 13.33 129.12 13.33 131.17 7.04"/>
    <polygon class="cls-1" points="93.49 -1.18 95.53 5.1 102.14 5.1 96.79 8.99 98.83 15.27 93.49 11.39 88.14 15.27 90.18 8.99 84.84 5.1 91.44 5.1 93.49 -1.18"/>
    <polygon class="cls-1" points="55.81 7.04 57.85 13.33 64.46 13.33 59.11 17.21 61.15 23.5 55.81 19.61 50.46 23.5 52.5 17.21 47.16 13.33 53.76 13.33 55.81 7.04"/>
    <polygon class="cls-1" points="24.67 31.41 26.71 37.7 33.32 37.7 27.98 41.58 30.02 47.87 24.67 43.98 19.32 47.87 21.37 41.58 16.02 37.7 22.63 37.7 24.67 31.41"/>
    <polygon class="cls-1" points="8.65 67.25 10.69 73.54 17.3 73.54 11.96 77.42 14 83.71 8.65 79.82 3.3 83.71 5.35 77.42 0 73.54 6.61 73.54 8.65 67.25"/>
    <polygon class="cls-1" points="8.65 105.87 10.69 112.15 17.3 112.15 11.96 116.04 14 122.32 8.65 118.44 3.3 122.32 5.35 116.04 0 112.15 6.61 112.15 8.65 105.87"/>
    <polygon class="cls-1" points="24.67 140.39 26.71 146.67 33.32 146.67 27.98 150.56 30.02 156.84 24.67 152.96 19.32 156.84 21.37 150.56 16.02 146.67 22.63 146.67 24.67 140.39"/>
    <polygon class="cls-1" points="55.81 165.21 57.85 171.49 64.46 171.49 59.11 175.38 61.15 181.66 55.81 177.78 50.46 181.66 52.5 175.38 47.16 171.49 53.76 171.49 55.81 165.21"/>
  </g>
</svg>